<svg id="Calque_1" data-name="Calque 1" xmlns="http://www.w3.org/2000/svg" viewBox="0 0 504.51 147.25"><defs><style>.cls-1{fill:#182e4f;}.cls-2{fill:#f0a229;}</style></defs><path class="cls-1" d="M60,475.11H52.27c-2.1-4-5.85-5.95-10.56-5.95-7.83,0-13.5,5.56-13.5,14.24s5.67,14.29,13.5,14.29c7.15,0,11.63-4.31,12.6-10.95H39.5v-5.16H61.23v5.05a19.45,19.45,0,0,1-19.52,16.91c-11.12,0-20.14-8.29-20.14-20.14a19.72,19.72,0,0,1,20.14-20.14C49.94,463.26,57,467.4,60,475.11Z" transform="translate(-21.57 -390.36)"/><path class="cls-1" d="M88.4,503.59a20.17,20.17,0,0,1,0-40.33c11.24,0,20.14,8.34,20.14,20.14S99.64,503.59,88.4,503.59Zm0-5.61c7.83,0,13.51-5.68,13.51-14.58s-5.68-14.47-13.51-14.47-13.5,5.56-13.5,14.47S80.57,498,88.4,498Z" transform="translate(-21.57 -390.36)"/><path class="cls-1" d="M135.72,503.59a20.17,20.17,0,0,1,0-40.33c11.23,0,20.14,8.34,20.14,20.14S147,503.59,135.72,503.59Zm0-5.61c7.83,0,13.5-5.68,13.5-14.58s-5.67-14.47-13.5-14.47-13.51,5.56-13.51,14.47S127.89,498,135.72,498Z" transform="translate(-21.57 -390.36)"/><path class="cls-1" d="M198.86,483.62c0,12.14-8.28,19.58-20.93,19.58H165.05V463.77h12.88C190.58,463.77,198.86,471.43,198.86,483.62Zm-20.93,14.3c9.3,0,14.29-5.33,14.29-14.3s-5-14.58-14.29-14.58h-6.42v28.88Z" transform="translate(-21.57 -390.36)"/><path class="cls-1" d="M243.73,483.17c0,11.57-8.11,20-20.87,20H207v-40h15.83C235.62,463.2,243.73,471.43,243.73,483.17ZM222,493.38c6.41,0,10.43-3.63,10.43-10.21s-4-10.33-10.43-10.33h-3.86v20.54Z" transform="translate(-21.57 -390.36)"/><path class="cls-1" d="M251.56,463.2h11.12v40H251.56Z" transform="translate(-21.57 -390.36)"/><path class="cls-1" d="M297.17,496.67H283l-2.15,6.53H269.15l14.58-40h12.82l14.52,40H299.33Zm-7.09-21.44-4.25,12.93h8.56Z" transform="translate(-21.57 -390.36)"/><path class="cls-1" d="M355,476.36h-12c-1.25-2.1-3.52-3.29-6.58-3.29-5.62,0-9,3.92-9,10,0,6.87,3.52,10.55,10.1,10.55a8.68,8.68,0,0,0,8.34-5.27H334.73v-8h20.76v10.78a19.93,19.93,0,0,1-19,12.31c-12.25,0-20.31-8.4-20.31-20.37s8-20.31,20.25-20.31C346.53,462.8,353.45,468,355,476.36Z" transform="translate(-21.57 -390.36)"/><path class="cls-1" d="M364.4,463.77h6.47V503.2H364.4Z" transform="translate(-21.57 -390.36)"/><path class="cls-1" d="M382.21,463.77h7L403,494.69l13.79-30.92h6.92V503.2h-6.47v-27l-12,27h-4.48l-12.09-27v27h-6.47Z" transform="translate(-21.57 -390.36)"/><path class="cls-1" d="M435.09,463.77h7l13.84,30.92,13.78-30.92h6.92V503.2h-6.46v-27l-12,27h-4.48l-12.09-27v27h-6.46Z" transform="translate(-21.57 -390.36)"/><path class="cls-1" d="M505.94,503.59a20.17,20.17,0,0,1,0-40.33c11.24,0,20.14,8.34,20.14,20.14S517.18,503.59,505.94,503.59Zm0-5.61c7.83,0,13.51-5.68,13.51-14.58s-5.68-14.47-13.51-14.47-13.5,5.56-13.5,14.47S498.11,498,505.94,498Z" transform="translate(-21.57 -390.36)"/><polygon class="cls-2" points="329.28 59.7 260.25 12.14 191.23 59.7 185.56 51.47 260.25 0 334.95 51.47 329.28 59.7"/><rect class="cls-2" x="185.81" y="137.25" width="148.89" height="10"/></svg>