<svg xmlns="http://www.w3.org/2000/svg" width="123.491" height="76.465" viewBox="0 0 123.491 76.465"><defs><style>.a{fill:#102d50;}</style></defs><path class="a" d="M41.546-151.4H39.634q-7.137,0-12.935-5.8a18.733,18.733,0,0,1-5.8-13.7,18,18,0,0,1,5.8-13.636,20.075,20.075,0,0,1,14.337-5.48A19.476,19.476,0,0,1,52-186.638a21.855,21.855,0,0,1,7.9,9.813,39.365,39.365,0,0,1,2.8,15.739,53.412,53.412,0,0,1-5.353,23.64,51.722,51.722,0,0,1-13.063,17.459q-7.71,6.436-13.955,6.436a8.708,8.708,0,0,1-6.436-2.485,8.238,8.238,0,0,1-2.485-6.053,8.856,8.856,0,0,1,5.225-8.411,38.321,38.321,0,0,0,10.578-8.666Q41.036-143.881,41.546-151.4Zm81.69,0h-1.912q-7.137,0-12.935-5.8a18.733,18.733,0,0,1-5.8-13.7,18,18,0,0,1,5.8-13.636,20.075,20.075,0,0,1,14.337-5.48,19.476,19.476,0,0,1,10.96,3.377,21.855,21.855,0,0,1,7.9,9.813,39.365,39.365,0,0,1,2.8,15.739,53.412,53.412,0,0,1-5.353,23.64,51.722,51.722,0,0,1-13.063,17.459q-7.71,6.436-13.955,6.436a8.708,8.708,0,0,1-6.436-2.485,8.238,8.238,0,0,1-2.485-6.053,8.856,8.856,0,0,1,5.225-8.411,38.321,38.321,0,0,0,10.578-8.666Q122.726-143.881,123.236-151.4Z" transform="translate(144.391 -113.55) rotate(180)"/></svg>