<svg xmlns="http://www.w3.org/2000/svg" xmlns:xlink="http://www.w3.org/1999/xlink" width="1920" height="911.5" viewBox="0 0 1920 911.5"><defs><style>.a{fill:#e0dddd;}.b{clip-path:url(#a);}.c{fill:#f7f7f7;}.c,.d,.e,.f,.h,.k,.m,.p,.q,.r,.s,.t,.u,.w,.x{fill-rule:evenodd;}.d{fill:#f2f2f2;}.e{fill:#e2e2e2;}.f{fill:#f7a731;}.g,.k{fill:#0f538d;}.h,.o{fill:#cbcbcb;}.i,.m{fill:#4087bc;}.j{fill:#fff;}.l,.r,.y{fill:#cce9ff;}.n,.s{fill:#f0f0f0;}.p{fill:#f1e3ca;}.q{fill:#ffcf8a;}.t{fill:#cc8d4a;}.u,.z{fill:#fdc06a;}.v,.w{fill:#d19643;}.x{fill:#d1dee7;}.y{opacity:0.3;}.aa{fill:none;}</style><clipPath id="a"><rect class="a" width="1920" height="911" transform="translate(0 165)"/></clipPath></defs><g transform="translate(0 -165)"><g class="b"><g transform="translate(502.364 12.804)"><path class="c" d="M607.612,392.831H574.231c0,246.216.125,275.651.125,522.213H743.512c0-246.562.25-276,.25-522.213H710.381L659,352.315Z" transform="translate(0 6)"/><path class="c" d="M826.652,414.356V678.372l36.507-15.785V921.044h145.027V878.69l-34.256-15.229V485.724l-37.007-16.452V359.441H900.541l-73.889,33.016Z"/><path class="c" d="M256.422,442.026h44.883V423.578h64.012v18.447H410.2V921.42H256.547V442.026Z"/><path class="c" d="M1175.467,394.8h-23.254V340.749h-16.253c0-11.125-9.377-20.315-21-20.315-11.5,0-20.879,9.069-20.879,20.315h-16.253V394.8h-23.254v54.053H1033.44V509.2a7.229,7.229,0,0,0-4.626-1.814V921.545h181.533V507.382a24.227,24.227,0,0,0-9.252,1.814V448.855h-25.5V394.8Z"/><path class="d" d="M1189.469,921.545h197.286V595.864l-197.286-37.136Z"/><path class="d" d="M1104.453,921.044H907.167V680.019l197.286-36.526Z"/><path class="e" d="M1137.209,503.718h44.883V484.464H1246.1v19.254h44.883v387.2H1137.334v-387.2Z"/><path class="d" d="M207.413,903.166H357.941V618.614L207.413,671.249Z"/><path class="d" d="M445.082,806.649H590.609V522.221L445.082,546.351Z"/><path class="e" d="M607.737,639.725l-6.1,281.319H774.768l-4.5-209.364-40.757-16.588V584.358H689.252l-81.515,33.176Z"/><path class="d" d="M890.289,921.294H725.134V504.218h53.01V489.84h73.639v14.378h38.507Z"/><path class="e" d="M827.527,847.531H943.049V562.979L827.527,615.613Z"/><path class="e" d="M201.662,569.669H178.408v-51.3H162.155c0-10.673-9.377-19.28-21-19.28s-21,8.607-21,19.28H103.894v51.183H80.64v51.3h-21v57.265A7.453,7.453,0,0,0,55.01,676.4v244.9H236.544V676.511a26.027,26.027,0,0,0-9.377,1.721V620.967h-25.5Z"/><path class="f" d="M208.538,805.9a50.646,50.646,0,0,0-44.258,26,31.27,31.27,0,0,0-12.877-2.75,31.667,31.667,0,0,0-31.631,31.631,10.754,10.754,0,0,0,.125,2,29.036,29.036,0,0,0-13.878-3.626c-15.253,0-27.505,11.752-27.505,26.38a21.192,21.192,0,0,0,.125,2.751,20.322,20.322,0,0,0-7.376-1.25A21.7,21.7,0,0,0,53.51,921.295H277.3v-83.14h-.875a36.136,36.136,0,0,0-19,5.251A50.457,50.457,0,0,0,208.538,805.9Z"/><path class="g" d="M208.413,921.42a11.647,11.647,0,0,1,2.876-4.5l28.255-22.629a3.706,3.706,0,0,0,.625-5,3.849,3.849,0,0,0-5.126-.625l-22.629,18.128a2.662,2.662,0,0,1-3,.375,2.916,2.916,0,0,1-1.625-2.625V882.913a10.612,10.612,0,0,1,1.75-6.126l13.377-22.629a3.67,3.67,0,0,0-1.25-5,3.788,3.788,0,0,0-5,1.25l-10.5,17.628a2.68,2.68,0,0,1-2.375,1.375,2.918,2.918,0,0,1-2.5-1.25l-8.5-12.252a3.59,3.59,0,1,0-5.876,4.126l11.5,16.378a11.7,11.7,0,0,1,2.25,7v9.252a2.625,2.625,0,0,1-1.5,2.5,2.884,2.884,0,0,1-3-.125l-22.879-14.378a3.625,3.625,0,1,0-3.876,6.126l28.38,17.878c2.125,1.375,2.751,4.376,2.751,6.5v10.127h7.876Z"/><path class="h" d="M327.31,723.383,396.2,660.622l68.888,62.762V921.42H327.31Z"/><rect class="i" width="36.382" height="54.635" transform="translate(404.7 748.763)"/><rect class="j" width="2.25" height="54.635" transform="translate(421.828 748.763)"/><rect class="j" width="36.382" height="2.25" transform="translate(404.7 775.018)"/><rect class="i" width="36.382" height="54.635" transform="translate(351.315 748.763)"/><rect class="j" width="2.25" height="54.635" transform="translate(368.443 748.763)"/><rect class="j" width="36.382" height="2.25" transform="translate(351.315 775.018)"/><path class="k" d="M327.31,723.383H249.046l68.888-62.762H396.2Z"/><rect class="l" width="78.389" height="197.911" transform="translate(249.046 723.383)"/><rect class="i" width="26.88" height="54.635" transform="translate(274.551 748.763)"/><rect class="j" width="1.75" height="54.635" transform="translate(287.178 748.763)"/><rect class="j" width="26.88" height="2.25" transform="translate(274.551 775.018)"/><rect class="i" width="36.382" height="54.635" transform="translate(404.7 833.529)"/><rect class="j" width="2.25" height="54.635" transform="translate(421.828 833.529)"/><rect class="j" width="36.382" height="2.25" transform="translate(404.7 859.783)"/><path class="m" d="M406.2,701.879v14.753h-20V701.879a10,10,0,0,1,20,0Z"/><rect class="i" width="31.881" height="34.381" transform="translate(353.565 834.904)"/><rect class="j" width="2.25" height="38.507" transform="translate(368.443 833.278)"/><rect class="j" width="36.382" height="2.25" transform="translate(351.315 851.032)"/><path class="k" d="M389.447,831.028v84.016H349.564V831.028ZM353.565,834.9v34.381h31.881V834.9Z"/><rect class="i" width="26.88" height="54.635" transform="translate(274.551 833.529)"/><rect class="j" width="1.75" height="54.635" transform="translate(287.178 833.529)"/><rect class="j" width="26.88" height="2.25" transform="translate(274.551 859.783)"/><rect class="n" width="8.627" height="48.134" transform="translate(318.809 641.618)"/><path class="h" d="M344.814,641.618H327.56v48.134l17.253-14Z"/><path class="h" d="M537.974,814.65l-40.632-62.887L456.584,814.65V921.42h81.39Z"/><rect class="l" width="163.155" height="106.77" transform="translate(537.974 814.65)"/><rect class="i" width="31.881" height="47.759" transform="translate(639.493 843.03)"/><rect class="j" width="2" height="47.759" transform="translate(654.496 843.03)"/><rect class="j" width="31.881" height="2" transform="translate(639.493 865.909)"/><rect class="i" width="31.756" height="47.759" transform="translate(567.855 843.03)"/><rect class="j" width="2" height="47.759" transform="translate(582.732 843.03)"/><rect class="j" width="31.756" height="2" transform="translate(567.855 865.909)"/><rect class="i" width="23.504" height="47.759" transform="translate(485.589 843.03)"/><rect class="j" width="1.5" height="47.759" transform="translate(496.591 843.03)"/><rect class="j" width="23.504" height="2" transform="translate(485.589 865.909)"/><path class="k" d="M701.254,814.65H537.974l-40.382-62.261H660.747Z"/><rect class="i" width="23.504" height="15.628" transform="translate(485.589 800.897)"/><rect class="o" width="8.627" height="48.134" transform="translate(601.611 731.385)"/><path class="p" d="M584.233,731.385h17.378v48.134L584.233,757.89Z"/><path class="q" d="M1286.987,651.745c-38.132,1.125-70.763,36.632-76.139,84.141-6.751,59.386,30.006,112.146,78.014,112.146,43.508,0,78.89-44.008,78.89-98.143,0-55.385-36.632-99.518-80.765-98.143Z"/><path class="g" d="M1295.114,921.42V817.651a16.037,16.037,0,0,1,4.751-11.5l38.007-30.381a4.9,4.9,0,0,0,.75-6.751,4.787,4.787,0,0,0-6.751-.75l-30.381,24.254a3.914,3.914,0,0,1-6.376-3V760.515a16.06,16.06,0,0,1,2.25-8.251l18-30.381a4.846,4.846,0,0,0-8.377-4.876l-14,23.754a4.014,4.014,0,0,1-6.626.25l-11.5-16.378a4.714,4.714,0,0,0-6.751-1.125,4.846,4.846,0,0,0-1.25,6.751l15.5,22a15.541,15.541,0,0,1,3,9.377v12.5a3.656,3.656,0,0,1-2,3.376,4.143,4.143,0,0,1-4-.125L1248.6,758.015a4.89,4.89,0,0,0-5.251,8.252l38.132,23.879c2.876,1.875,3.751,5.876,3.751,8.627V921.42Z"/><path class="r" d="M1168.465,798.272l-83.14-62.762-83.14,62.762V921.42h166.281Z"/><rect class="i" width="36.382" height="54.635" transform="translate(1101.578 825.277)"/><rect class="j" width="2.25" height="54.635" transform="translate(1118.581 825.277)"/><rect class="j" width="36.382" height="2.25" transform="translate(1101.578 851.407)"/><path class="k" d="M1168.465,798.272h78.389l-83.14-62.762h-78.389Z"/><rect class="o" width="78.389" height="123.023" transform="translate(1168.465 798.272)"/><rect class="i" width="26.88" height="54.635" transform="translate(1194.22 825.277)"/><rect class="j" width="1.625" height="54.635" transform="translate(1206.847 825.277)"/><rect class="j" width="26.88" height="2.25" transform="translate(1194.22 851.407)"/><rect class="o" width="8.627" height="48.134" transform="translate(1169.59 715.132)"/><path class="s" d="M1152.212,715.132h17.378v48.009l-17.378-13.878Z"/><rect class="l" width="84.641" height="61.511" transform="translate(1246.855 859.783)"/><path class="k" d="M1246.855,859.783H1331.5l-84.641-37.132Z"/><rect class="i" width="23.504" height="15.628" transform="translate(1258.482 882.788)"/><rect class="i" width="23.504" height="15.628" transform="translate(1296.364 882.788)"/><path class="m" d="M1075.323,771.267V786.02h20V771.267a10,10,0,1,0-20,0Z"/><rect class="i" width="31.881" height="34.381" transform="translate(1034.941 834.904)"/><rect class="j" width="2.25" height="38.507" transform="translate(1049.818 833.278)"/><rect class="j" width="36.382" height="2.25" transform="translate(1032.69 851.032)"/><path class="t" d="M1070.822,831.028v84.016H1030.94V831.028Zm-35.882,3.876v34.381h31.881V834.9Z"/><path class="f" d="M933.3,845.656a33.765,33.765,0,0,1,12.877,2.5,30.5,30.5,0,0,1,57.886,10.877,29.84,29.84,0,0,1,14.128-3.376,30.413,30.413,0,0,1,30.381,30.381c0,1.375-.125,2.625-.25,4a15.425,15.425,0,0,1,6.876-1.5,16.5,16.5,0,0,1,0,33.006H893.915a23.067,23.067,0,1,1,0-46.134,25.1,25.1,0,0,1,5.251.625A34.263,34.263,0,0,1,933.3,845.656Z"/><path class="g" d="M905.917,921.42l-6-4.876a4,4,0,1,1,5-6.251l13.753,11H905.917Zm29.13,0v-17.5a12.785,12.785,0,0,0-1.875-6.751l-14.753-25a4.01,4.01,0,1,1,6.876-4.126l11.5,19.5a2.939,2.939,0,0,0,2.625,1.5,3.32,3.32,0,0,0,2.75-1.375l9.377-13.5a4.041,4.041,0,1,1,6.626,4.626l-12.627,18a12.826,12.826,0,0,0-2.375,7.626v10.252a3.107,3.107,0,0,0,1.625,2.751,2.824,2.824,0,0,0,3.251-.125L973.3,901.416a3.989,3.989,0,1,1,4.251,6.751L956.926,921.42Z"/><path class="g" d="M1004.185,921.42l-10.877-27.13c-1.875-4.751,5.376-7.626,7.251-2.876l7.751,19.379a3.084,3.084,0,0,0,5.751,0l12-29.255c1.875-4.626,9.127-1.75,7.126,3l-15.128,36.882Z"/><path class="u" d="M865.034,723.383l-68.888-62.762-68.888,62.762V921.42H865.034Z"/><rect class="i" width="36.382" height="54.635" transform="translate(751.263 748.763)"/><rect class="j" width="2.25" height="54.635" transform="translate(768.266 748.763)"/><rect class="j" width="36.382" height="2.25" transform="translate(751.263 775.018)"/><rect class="i" width="36.382" height="54.635" transform="translate(804.648 748.763)"/><rect class="j" width="2.25" height="54.635" transform="translate(821.651 748.763)"/><rect class="j" width="36.382" height="2.25" transform="translate(804.648 775.018)"/><path class="k" d="M865.034,723.383h78.389l-69.013-62.762H796.147Z"/><rect class="v" width="78.389" height="197.911" transform="translate(865.034 723.383)"/><rect class="i" width="26.88" height="54.635" transform="translate(890.914 748.763)"/><rect class="j" width="1.75" height="54.635" transform="translate(903.541 748.763)"/><rect class="j" width="26.88" height="2.25" transform="translate(890.914 775.018)"/><rect class="i" width="36.382" height="54.635" transform="translate(751.263 833.529)"/><rect class="j" width="2.25" height="54.635" transform="translate(768.266 833.529)"/><rect class="j" width="36.382" height="2.25" transform="translate(751.263 859.783)"/><rect class="i" width="36.382" height="54.635" transform="translate(804.648 833.529)"/><rect class="j" width="2.25" height="54.635" transform="translate(821.651 833.529)"/><rect class="j" width="36.382" height="2.25" transform="translate(804.648 859.783)"/><path class="w" d="M909.793,669.873l-24.129-17.628-24.13,17.628V706.38h48.259Z"/><path class="u" d="M834.4,669.873h27.13V706.38L834.4,681.626Z"/><rect class="i" width="22.379" height="23.754" transform="translate(874.411 671.124)"/><rect class="j" width="1.375" height="23.754" transform="translate(885.038 671.124)"/><rect class="j" width="22.379" height="1.375" transform="translate(874.411 682.251)"/><path class="k" d="M885.663,652.245h-27.13L834.4,669.873h27.13Z"/><rect class="i" width="27.63" height="23.504" transform="translate(782.269 697.128)"/><rect class="j" width="1.5" height="23.504" transform="translate(795.396 697.128)"/><rect class="j" width="28.38" height="1.5" transform="translate(781.894 708.13)"/><rect class="i" width="31.881" height="34.381" transform="translate(888.414 834.904)"/><rect class="j" width="2.25" height="38.507" transform="translate(903.291 833.278)"/><rect class="j" width="36.382" height="2.25" transform="translate(886.163 851.032)"/><path class="k" d="M924.3,831.028v84.016H884.413V831.028ZM888.414,834.9v34.381h31.881V834.9Z"/><path class="q" d="M697.753,698.754c-23.5,0-51.76,23.129-63.637,70.263-11.752,47.259,1,93.767,62.637,93.767,61.761,0,73.388-37.882,68.388-82.14-4.876-44.008-43.883-81.89-67.387-81.89Z"/><path class="g" d="M702.88,921.42V852.032a14.952,14.952,0,0,1,3.251-9.627l33.756-44.383a3.926,3.926,0,1,0-6.251-4.751l-25.13,32.881a3.127,3.127,0,0,1-5.626-1.875V791.9A15.836,15.836,0,0,1,704,786.02l13-32.381c2-4.876-5.376-7.751-7.251-3l-7.876,19.754a3.176,3.176,0,0,1-5.876,0l-12.252-29.755c-2-4.751-9.252-1.75-7.251,3l17.378,42.383a14.234,14.234,0,0,1,1.125,6v23.5a3.162,3.162,0,0,1-5.5,2.125L658,783.894c-3.5-3.751-9.377,1.625-5.751,5.376l38.507,41.383A15.009,15.009,0,0,1,695,841.4v80.015h7.876Z"/><path class="x" d="M439.581,278.8c19-8.877,34.131,1.125,46.509,13.878q-165.781,3-331.686,5.876c14.128-19.129,37.007-30.006,56.385-18.878,3.751-22.629,16.5-30.506,38.632-22.754-8.5-65.387,90.767-78.89,106.02-12.877,9.5-21.754,57.511-21.129,53.385,20.754,6.876-21.254,44.008-12.877,30.756,14Z" transform="translate(171.232 36.13)"/><path class="x" d="M1206.972,232.168c15.378-7.126,27.63,1,37.632,11.252q-134.275,2.438-268.424,4.751c11.5-15.5,30.006-24.254,45.633-15.253,3-18.378,13.252-24.63,31.256-18.378-6.876-52.885,73.514-63.887,85.766-10.377,7.751-17.628,46.509-17.128,43.258,16.878,5.5-17.5,35.632-10.627,24.88,11.127Z" transform="translate(-148.652 -11.325)"/><rect class="y" width="28.38" height="3.501" transform="translate(1389.256 1034.566)"/><path class="w" d="M727.259,723.143l68.888-62.521,68.888,62.521V920.42H727.259Z" transform="translate(-723.258 0.874)"/><rect class="i" width="36.382" height="54.635" transform="translate(81.39 748.637)"/><rect class="j" width="2.25" height="54.635" transform="translate(98.518 748.637)"/><rect class="j" width="36.382" height="2.25" transform="translate(81.39 774.892)"/><rect class="i" width="36.382" height="54.635" transform="translate(28.005 748.637)"/><rect class="j" width="2.25" height="54.635" transform="translate(45.133 748.637)"/><rect class="j" width="36.382" height="2.25" transform="translate(28.005 774.892)"/><path class="k" d="M874.536,723.383H796.147l69.013-62.762h78.264Z" transform="translate(-870.535 0.874)"/><rect class="z" width="78.389" height="197.037" transform="translate(-74.389 724.257)"/><rect class="i" width="26.88" height="54.635" transform="translate(-48.759 748.637)"/><rect class="j" width="1.75" height="54.635" transform="translate(-36.257 748.637)"/><rect class="j" width="26.88" height="2.25" transform="translate(-48.759 774.892)"/><rect class="i" width="36.382" height="54.635" transform="translate(81.39 833.402)"/><rect class="j" width="2.25" height="54.635" transform="translate(98.518 833.402)"/><rect class="j" width="36.382" height="2.25" transform="translate(81.39 859.657)"/><rect class="i" width="36.382" height="54.635" transform="translate(28.005 833.402)"/><rect class="j" width="2.25" height="54.635" transform="translate(45.133 833.402)"/><rect class="j" width="36.382" height="2.25" transform="translate(28.005 859.657)"/><rect class="i" width="27.63" height="23.504" transform="translate(59.136 697.002)"/><rect class="j" width="1.5" height="23.504" transform="translate(72.138 697.002)"/><rect class="j" width="28.38" height="1.5" transform="translate(58.761 708.005)"/><rect class="i" width="31.881" height="34.381" transform="translate(-51.259 834.777)"/><rect class="j" width="2.25" height="38.507" transform="translate(-36.506 833.152)"/><rect class="j" width="36.382" height="2.25" transform="translate(-53.51 850.906)"/><path class="k" d="M884.413,831.028v84.015H924.3V831.028Zm35.882,3.876v34.381H888.414V834.9Z" transform="translate(-939.673 -0.126)"/></g></g><line class="aa" x2="1903" y2="891" transform="translate(16.5 185.5)"/><line class="aa" x1="1894" y2="891" transform="translate(0.5 185.5)"/></g></svg>