<svg xmlns="http://www.w3.org/2000/svg" width="211.692" height="210.308" viewBox="0 0 211.692 210.308"><defs><style>.a{fill:#fff;}</style></defs><g transform="translate(-60.634 -174.867)"><path class="a" d="M80.518,234.168l2.324-4.534,6.488,3.326a16.368,16.368,0,0,1-.593,2.415A18.385,18.385,0,0,1,87.61,238a6.907,6.907,0,0,1-4.221,3.794,7.981,7.981,0,0,1-5.916-.9,8.57,8.57,0,0,1-3.217-2.7,6.342,6.342,0,0,1-1.158-3.63,8.753,8.753,0,0,1,1.06-4.1,11.293,11.293,0,0,1,2.824-3.576l1.06,1.3a9.966,9.966,0,0,0-2.549,3.083,5.6,5.6,0,0,0-.5,4.549,6.329,6.329,0,0,0,3.322,3.431,6.458,6.458,0,0,0,4.773.782,5.7,5.7,0,0,0,3.382-3.157A12.932,12.932,0,0,0,87.54,234L83.434,231.9l-1.53,2.983Z"/><path class="a" d="M93.23,215.746a8.251,8.251,0,0,1,3.434,4.854,6.4,6.4,0,0,1-1.39,5.284,6.476,6.476,0,0,1-4.688,2.871,8.32,8.32,0,0,1-5.652-1.992,8.216,8.216,0,0,1-3.455-4.851,6.527,6.527,0,0,1,1.466-5.31,6.387,6.387,0,0,1,4.669-2.8A8.241,8.241,0,0,1,93.23,215.746ZM86.059,225.3a7.109,7.109,0,0,0,4.472,1.736,4.6,4.6,0,0,0,3.522-2.069,4.556,4.556,0,0,0,1-3.951,9,9,0,0,0-7.365-5.536,4.54,4.54,0,0,0-3.5,2.059,4.624,4.624,0,0,0-1.016,3.975A7.045,7.045,0,0,0,86.059,225.3Z"/><path class="a" d="M105.482,203.9a8.26,8.26,0,0,1,2.537,5.378,6.4,6.4,0,0,1-2.289,4.962,6.478,6.478,0,0,1-5.117,2.011,8.314,8.314,0,0,1-5.218-2.946,8.217,8.217,0,0,1-2.559-5.378,6.527,6.527,0,0,1,2.369-4.973,6.387,6.387,0,0,1,5.086-1.948A8.244,8.244,0,0,1,105.482,203.9Zm-8.725,8.16a7.116,7.116,0,0,0,4.1,2.488,5.3,5.3,0,0,0,5.5-5.141,9,9,0,0,0-6.289-6.733,4.54,4.54,0,0,0-3.805,1.418,4.627,4.627,0,0,0-1.693,3.738A7.043,7.043,0,0,0,96.757,212.059Z"/><path class="a" d="M118.646,194.81a7.573,7.573,0,0,1,1.437,5.849,7.971,7.971,0,0,1-3.764,4.828l-3.468,2.283-8.243-12.522,3.837-2.525a6.729,6.729,0,0,1,10.2,2.087Zm-1.508,1.066a6.034,6.034,0,0,0-3.659-2.882,5.9,5.9,0,0,0-4.471,1.162l-2.115,1.393,6.585,10,1.773-1.167a6.458,6.458,0,0,0,3.071-3.857A6.07,6.07,0,0,0,117.138,195.876Z"/><path class="a" d="M138.583,186.28a7.571,7.571,0,0,1,.1,6.022,7.972,7.972,0,0,1-4.745,3.87l-3.889,1.454-5.25-14.042,4.3-1.609a6.729,6.729,0,0,1,9.479,4.3Zm-1.707.7a6.036,6.036,0,0,0-2.925-3.624,5.9,5.9,0,0,0-4.618.139l-2.372.886,4.194,11.219,1.988-.744A6.455,6.455,0,0,0,137,191.784,6.072,6.072,0,0,0,136.876,186.984Z"/><path class="a" d="M144.164,192.868l-3.6-14.552,1.691-.419,3.6,14.551Z"/><path class="a" d="M158.82,190.241l-2.51-4.463-5.951.835-1.165,4.979-1.747.245,3.778-15.731,1.452-.2,7.93,14.087Zm-3.267-5.941-2.371-4.357q-.459-.826-.992-2.046a19.306,19.306,0,0,1-.339,2.232l-1.1,4.846Z"/><path class="a" d="M168.876,182.213l5.095.083-.118,7.289a16.176,16.176,0,0,1-2.429.535,18.3,18.3,0,0,1-2.853.149,6.91,6.91,0,0,1-5.268-2.111,7.98,7.98,0,0,1-1.8-5.705,8.553,8.553,0,0,1,1-4.081,6.351,6.351,0,0,1,2.745-2.643,8.755,8.755,0,0,1,4.147-.86,11.3,11.3,0,0,1,4.456.954l-.7,1.527a9.965,9.965,0,0,0-3.892-.925,5.6,5.6,0,0,0-4.3,1.561,6.325,6.325,0,0,0-1.611,4.5,6.469,6.469,0,0,0,1.406,4.628,5.711,5.711,0,0,0,4.328,1.639,12.879,12.879,0,0,0,3.05-.31l.075-4.613-3.352-.055Z"/><path class="a" d="M182.188,191.4l2.751-14.736,1.714.32L183.9,191.723Z"/><path class="a" d="M193.824,194.281l-.662-14.213-.079-.026q-.358,1.545-1.04,3.609l-2.99,9.055-1.529-.5,4.7-14.235,2.493.823.63,13.232.078.025,8.425-10.241,2.473.817-4.7,14.235-1.656-.546,3.03-9.172q.521-1.578,1.268-3.383l-.078-.026-9.029,10.992Z"/><path class="a" d="M210.487,201.58l2.247-14.05-.071-.041q-.666,1.438-1.753,3.321l-4.773,8.255-1.394-.805,7.5-12.979,2.272,1.314-2.078,13.082.071.041,10.334-8.31,2.255,1.3-7.5,12.979-1.509-.872,4.834-8.362q.831-1.438,1.931-3.054l-.072-.041L211.7,202.283Z"/><path class="a" d="M235.112,210.649a8.245,8.245,0,0,1-5.082,3.086,6.4,6.4,0,0,1-5.174-1.755,6.478,6.478,0,0,1-2.538-4.877,8.321,8.321,0,0,1,2.383-5.5,8.211,8.211,0,0,1,5.08-3.108,6.525,6.525,0,0,1,5.195,1.833,6.384,6.384,0,0,1,2.47,4.854A8.242,8.242,0,0,1,235.112,210.649Zm-9.029-7.821a7.106,7.106,0,0,0-2.044,4.34,5.3,5.3,0,0,0,5.689,4.936,9,9,0,0,0,6.036-6.961,4.534,4.534,0,0,0-1.809-3.636,4.628,4.628,0,0,0-3.894-1.291A7.036,7.036,0,0,0,226.083,202.828Z"/><path class="a" d="M241.932,217.147a3,3,0,0,1,2.017-.775,2.347,2.347,0,0,1,1.7,1.017,2.385,2.385,0,0,1,.582,1.87,2.946,2.946,0,0,1-1.233,1.794,3,3,0,0,1-2.021.764,2.335,2.335,0,0,1-1.7-1,2.309,2.309,0,0,1-.557-1.9A3.016,3.016,0,0,1,241.932,217.147Z"/><path class="a" d="M254.636,236.575l2.5,4.992-7.141,3.573a17.86,17.86,0,0,1-1.748-2.089,20.286,20.286,0,0,1-1.588-2.7,7.566,7.566,0,0,1-.614-6.185,8.741,8.741,0,0,1,4.63-4.639,9.389,9.389,0,0,1,4.472-1.089,6.956,6.956,0,0,1,3.956,1.33,9.607,9.607,0,0,1,2.933,3.593,12.372,12.372,0,0,1,1.327,4.812l-1.838.091a10.938,10.938,0,0,0-1.071-4.249,6.127,6.127,0,0,0-3.692-3.39,6.937,6.937,0,0,0-5.183.709,7.088,7.088,0,0,0-3.784,3.708,6.25,6.25,0,0,0,.6,5.032,14.129,14.129,0,0,0,1.843,2.807l4.52-2.26-1.643-3.285Z"/><path class="a" d="M262.443,259.976a9.046,9.046,0,0,1-6.507-.229,7.013,7.013,0,0,1-3.683-4.718,7.1,7.1,0,0,1,.609-5.991,9.112,9.112,0,0,1,5.488-3.6,9,9,0,0,1,6.519.208,7.145,7.145,0,0,1,3.653,4.8,6.993,6.993,0,0,1-.656,5.929A9.031,9.031,0,0,1,262.443,259.976Zm-3.565-12.589a7.8,7.8,0,0,0-4.48,2.745,5.8,5.8,0,0,0,2.242,7.938,9.853,9.853,0,0,0,9.71-2.743,4.968,4.968,0,0,0,.53-4.416,5.067,5.067,0,0,0-2.79-3.523A7.712,7.712,0,0,0,258.878,247.387Z"/><path class="a" d="M264.353,278.7a9.042,9.042,0,0,1-6.343-1.475,7.011,7.011,0,0,1-2.707-5.337,7.1,7.1,0,0,1,1.748-5.762,9.11,9.11,0,0,1,6.077-2.481,9,9,0,0,1,6.358,1.456,7.147,7.147,0,0,1,2.663,5.414,6.992,6.992,0,0,1-1.782,5.692A9.035,9.035,0,0,1,264.353,278.7Zm-1.08-13.039a7.794,7.794,0,0,0-4.925,1.834,5.8,5.8,0,0,0,.675,8.221,9.856,9.856,0,0,0,10.057-.828,4.967,4.967,0,0,0,1.368-4.232,5.065,5.065,0,0,0-2.061-3.993A7.711,7.711,0,0,0,263.273,265.665Z"/><path class="a" d="M262.985,296.284a8.29,8.29,0,0,1-5.96-2.826,8.733,8.733,0,0,1-1.495-6.536l.461-4.525,16.335,1.666-.511,5.005a7.37,7.37,0,0,1-8.83,7.216Zm.139-2.018a6.613,6.613,0,0,0,4.978-1.112,6.459,6.459,0,0,0,2.106-4.6l.281-2.76-13.049-1.33-.236,2.312a7.066,7.066,0,0,0,1.15,5.277A6.649,6.649,0,0,0,263.124,294.266Z"/><path class="a" d="M256,319.185a8.287,8.287,0,0,1-5.092-4.194,8.73,8.73,0,0,1,.143-6.7l1.551-4.276,15.435,5.6-1.715,4.73A7.37,7.37,0,0,1,256,319.185Zm.625-1.923a6.61,6.61,0,0,0,5.1.135,6.458,6.458,0,0,0,3.164-3.948l.946-2.608L253.5,306.369l-.792,2.186a7.071,7.071,0,0,0-.172,5.4A6.648,6.648,0,0,0,256.621,317.262Z"/><path class="a" d="M246.5,319.131l14.614,7.485-.87,1.7-14.614-7.485Z"/><path class="a" d="M238.045,333.078l5.481,1.187,3.641-5.482-3.231-4.574L245,322.6l10.142,14.528-.888,1.338-17.306-3.742Zm7.242,1.642,5.294,1.224q1.01.225,2.4.675a21.179,21.179,0,0,1-1.583-1.9l-3.169-4.423Z"/><path class="a" d="M237.153,347.139l-3.821,4.069-5.821-5.467a18,18,0,0,1,1.356-2.363,20.321,20.321,0,0,1,1.982-2.421,7.567,7.567,0,0,1,5.592-2.714,8.748,8.748,0,0,1,5.954,2.741,9.4,9.4,0,0,1,2.566,3.821,6.957,6.957,0,0,1,.119,4.172,9.594,9.594,0,0,1-2.358,3.994,12.388,12.388,0,0,1-4.056,2.908l-.721-1.693a10.944,10.944,0,0,0,3.618-2.474,6.126,6.126,0,0,0,1.9-4.635,6.93,6.93,0,0,0-2.457-4.619,7.079,7.079,0,0,0-4.786-2.27,6.251,6.251,0,0,0-4.516,2.3,14.156,14.156,0,0,0-2,2.7l3.684,3.459,2.514-2.676Z"/><path class="a" d="M219.792,351.015l9.66,13.276-1.544,1.123-9.66-13.276Z"/><path class="a" d="M208.677,358.074l11.687,10.309.08-.042q-.942-1.458-2.047-3.568l-4.845-9.252,1.562-.818,7.617,14.545-2.546,1.334L209.294,361l-.079.042,1.638,14.431-2.527,1.324-7.618-14.545,1.691-.886,4.909,9.372q.845,1.611,1.694,3.575l.08-.042-1.768-15.479Z"/><path class="a" d="M190.194,365.454l9.1,12.654.087-.023q-.593-1.632-1.2-3.934l-2.662-10.1,1.705-.449,4.184,15.877-2.78.732-8.479-11.771-.087.023-1.62,14.433-2.759.727-4.184-15.877,1.846-.487,2.7,10.23q.463,1.759.856,3.863l.086-.023,1.727-15.483Z"/><path class="a" d="M163.9,377.1a9.041,9.041,0,0,1,1.684-6.29,7.01,7.01,0,0,1,5.424-2.529,7.1,7.1,0,0,1,5.7,1.939,9.109,9.109,0,0,1,2.278,6.156,9,9,0,0,1-1.666,6.306,7.152,7.152,0,0,1-5.5,2.482,7,7,0,0,1-5.63-1.971A9.03,9.03,0,0,1,163.9,377.1Zm13.067-.647a7.792,7.792,0,0,0-1.669-4.983,5.8,5.8,0,0,0-8.239.4,9.853,9.853,0,0,0,.494,10.078,4.973,4.973,0,0,0,4.184,1.508,5.066,5.066,0,0,0,4.059-1.927A7.706,7.706,0,0,0,176.967,376.451Z"/><path class="a" d="M153.717,376.21a3,3,0,0,1-.947,1.943,2.359,2.359,0,0,1-1.936.412,2.385,2.385,0,0,1-1.7-.972,2.943,2.943,0,0,1-.321-2.154,3,3,0,0,1,.958-1.936,2.335,2.335,0,0,1,1.927-.43,2.311,2.311,0,0,1,1.705,1.013A3.018,3.018,0,0,1,153.717,376.21Z"/><path class="a" d="M131.188,370.64l-5.227-1.958,2.8-7.478a18.026,18.026,0,0,1,2.7.341,20.148,20.148,0,0,1,3,.895,7.565,7.565,0,0,1,4.66,4.113,8.738,8.738,0,0,1-.234,6.55,9.389,9.389,0,0,1-2.536,3.841,6.951,6.951,0,0,1-3.8,1.718,9.592,9.592,0,0,1-4.595-.635,12.358,12.358,0,0,1-4.246-2.622l1.284-1.318a10.932,10.932,0,0,0,3.676,2.384,6.123,6.123,0,0,0,5.012-.03,6.928,6.928,0,0,0,3.315-4.047,7.085,7.085,0,0,0,.249-5.291,6.248,6.248,0,0,0-3.863-3.281,14.137,14.137,0,0,0-3.261-.8l-1.772,4.733,3.439,1.288Z"/><path class="a" d="M109.551,358.822a9.04,9.04,0,0,1,4.921-4.264,7.006,7.006,0,0,1,5.909.946,7.1,7.1,0,0,1,3.635,4.8,9.116,9.116,0,0,1-1.564,6.375,9,9,0,0,1-4.916,4.288,7.146,7.146,0,0,1-5.945-1.028,7,7,0,0,1-3.558-4.787A9.037,9.037,0,0,1,109.551,358.822Zm11.184,6.79a7.8,7.8,0,0,0,1.411-5.062,5.8,5.8,0,0,0-7.048-4.286,9.851,9.851,0,0,0-5.241,8.623,4.969,4.969,0,0,0,2.62,3.594,5.066,5.066,0,0,0,4.441.68A7.709,7.709,0,0,0,120.735,365.612Z"/><path class="a" d="M95.389,346.431a9.04,9.04,0,0,1,5.645-3.247,7.007,7.007,0,0,1,5.619,2.057,7.1,7.1,0,0,1,2.652,5.407,9.118,9.118,0,0,1-2.753,5.959,9,9,0,0,1-5.644,3.27,7.142,7.142,0,0,1-5.639-2.143,7,7,0,0,1-2.579-5.379A9.035,9.035,0,0,1,95.389,346.431Zm9.682,8.8a7.792,7.792,0,0,0,2.352-4.7,5.8,5.8,0,0,0-6.1-5.552,9.856,9.856,0,0,0-6.791,7.463,4.974,4.974,0,0,0,1.886,4.029,5.066,5.066,0,0,0,4.23,1.515A7.715,7.715,0,0,0,105.071,355.231Z"/><path class="a" d="M84.4,332.6a8.29,8.29,0,0,1,6.29-1.989,8.729,8.729,0,0,1,5.545,3.769l2.744,3.628-13.1,9.9L82.846,343.9A7.371,7.371,0,0,1,84.4,332.6Zm1.273,1.571a6.612,6.612,0,0,0-2.889,4.2,6.458,6.458,0,0,0,1.59,4.8l1.673,2.213,10.463-7.912-1.4-1.854a7.07,7.07,0,0,0-4.434-3.081A6.647,6.647,0,0,0,85.672,334.174Z"/><path class="a" d="M73.927,311.125a8.289,8.289,0,0,1,6.584-.4,8.734,8.734,0,0,1,4.466,5l1.781,4.184-15.107,6.431-1.97-4.629a7.369,7.369,0,0,1,4.246-10.583Zm.854,1.833a6.616,6.616,0,0,0-3.823,3.379,6.459,6.459,0,0,0,.378,5.045l1.086,2.552,12.07-5.138-.911-2.139a7.062,7.062,0,0,0-3.555-4.064A6.645,6.645,0,0,0,74.781,312.958Z"/><path class="a" d="M80.909,304.684,65.114,309.17l-.521-1.837,15.794-4.485Z"/><path class="a" d="M77.59,288.7l-4.821,2.865,1.068,6.493,5.481,1.147.313,1.906L62.31,297.38l-.261-1.585,15.22-9.047Zm-6.42,3.731-4.71,2.709q-.893.522-2.214,1.138a21.39,21.39,0,0,1,2.453.314l5.333,1.08Z"/><path class="a" d="M68.68,277.722l.091-5.581,7.983.13a17.936,17.936,0,0,1,.586,2.66,20.157,20.157,0,0,1,.162,3.125,7.565,7.565,0,0,1-2.311,5.769,8.743,8.743,0,0,1-6.249,1.977,9.389,9.389,0,0,1-4.469-1.1,6.937,6.937,0,0,1-2.894-3.006,9.573,9.573,0,0,1-.943-4.542,12.362,12.362,0,0,1,1.045-4.88l1.672.769A10.942,10.942,0,0,0,62.34,277.3a6.13,6.13,0,0,0,1.71,4.712,6.931,6.931,0,0,0,4.925,1.764,7.084,7.084,0,0,0,5.068-1.54,6.25,6.25,0,0,0,1.795-4.739,14.163,14.163,0,0,0-.339-3.342l-5.053-.082-.059,3.672Z"/><path class="a" d="M70.39,261.856a3,3,0,0,1-1.895-1.04,2.354,2.354,0,0,1-.318-1.953,2.382,2.382,0,0,1,1.053-1.651A2.94,2.94,0,0,1,71.4,257a2.987,2.987,0,0,1,1.887,1.05,2.681,2.681,0,0,1-.757,3.6A3.018,3.018,0,0,1,70.39,261.856Z"/></g></svg>