<svg xmlns="http://www.w3.org/2000/svg" width="60" height="60" viewBox="0 0 60 60"><defs><style>.a{fill:#fff;}</style></defs><g transform="translate(-1509.462 -2707.421)"><path class="a" d="M1544.3,2767.031c-.25.041-.5.078-.753.113.252-.035.5-.072.753-.113Z"/><path class="a" d="M1544.9,2766.928c-.119.022-.239.042-.358.063.119-.021.239-.041.358-.063Z"/><path class="a" d="M1542.876,2767.227c-.292.033-.587.062-.882.087.295-.025.59-.054.882-.087Z"/><path class="a" d="M1543.453,2767.156c-.141.019-.283.037-.424.053.141-.016.283-.034.424-.053Z"/><path class="a" d="M1545.716,2766.766l-.317.067.317-.067Z"/><path class="a" d="M1547.743,2766.263l-.256.071.256-.071Z"/><path class="a" d="M1547.13,2766.43l-.279.073.279-.073Z"/><path class="a" d="M1546.328,2766.631c-.1.023-.2.044-.3.066.1-.022.2-.043.3-.066Z"/><path class="a" d="M1541.984,2767.315q-.235.019-.474.036.238-.016.474-.036Z"/><path class="a" d="M1569.462,2737.421a30,30,0,1,0-30,30c.176,0,.351,0,.527-.006v-23.354h-6.445v-7.512h6.445v-5.527c0-6.411,3.914-9.9,9.632-9.9a52.738,52.738,0,0,1,5.778.3v6.7h-3.943c-3.111,0-3.713,1.479-3.713,3.648v4.784h7.438l-.969,7.512h-6.469v22.2a30.016,30.016,0,0,0,21.719-28.841Z"/><path class="a" d="M1541.444,2767.355c-.312.02-.626.036-.94.046.314-.01.628-.026.94-.046Z"/><path class="a" d="M1540.488,2767.4c-.166.006-.332.01-.5.013.167,0,.333-.007.5-.013Z"/></g></svg>