<svg xmlns="http://www.w3.org/2000/svg" width="441.137" height="267.47" viewBox="0 0 441.137 267.47"><defs><style>.a{fill:#e4e4e4;}.b{opacity:0.2;}.b,.k{isolation:isolate;}.c{fill:#3f3d56;}.d{fill:#d1dee7;}.e{fill:#cacaca;}.f{fill:#759ec8;}.g{fill:#407eaf;}.h{fill:#fff;}.i{fill:#f0f0f0;}.j{fill:#f0a12a;}.k{opacity:0.3;}</style></defs><g transform="translate(-40.014)"><circle class="a" cx="26.411" cy="26.411" r="26.411" transform="translate(120.29 166.178)"/><path class="b" d="M356.065,519.474a26.413,26.413,0,0,0,44.009,27.953,26.414,26.414,0,1,1-44.009-27.953Z" transform="translate(-228.865 -344.526)"/><path class="c" d="M247.356,325.819h.072l1.306,74.88h-2.757Z" transform="translate(-100.582 -133.23)"/><circle class="a" cx="53.25" cy="53.25" r="53.25" transform="translate(40.014 63.247)"/><path class="b" d="M227.429,360.416a53.254,53.254,0,0,0,88.73,56.358,53.255,53.255,0,1,1-88.73-56.358Z" transform="translate(-173.483 -279.486)"/><path class="c" d="M156.106,197.087h.147l2.633,150.973h-5.559Z" transform="translate(-62.696 -80.59)"/><rect class="d" width="244.075" height="72.354" transform="translate(200.268 189.327)"/><rect class="e" width="28.459" height="57.401" transform="translate(308.076 204.28)"/><rect class="d" width="215.616" height="66.566" transform="translate(214.497 103.949)"/><path class="f" d="M729.234,331.549H469.9a2.171,2.171,0,0,1-1.5-3.736l70.876-68.127V230.012a2.173,2.173,0,0,1,2.171-2.171h13.989a2.173,2.173,0,0,1,2.171,2.171v12.056l5.353-5.146a48.1,48.1,0,0,1,65.493-1.089l102.238,91.931a2.171,2.171,0,0,1-1.451,3.785Z" transform="translate(-277.261 -223.5)"/><path class="g" d="M449.666,204.421h0a13.747,13.747,0,0,1,13.747,13.747v18.571H435.919V218.168A13.747,13.747,0,0,1,449.666,204.421Z" transform="translate(-178.25 -83.589)"/><path class="h" d="M535.76,204.829h0a13.747,13.747,0,0,1,13.747,13.747v18.571H522.012V218.576A13.747,13.747,0,0,1,535.76,204.829Z" transform="translate(-213.454 -83.756)"/><path class="h" d="M621.853,205.237h0A13.747,13.747,0,0,1,635.6,218.984v18.571H608.106V218.984a13.747,13.747,0,0,1,13.747-13.747Z" transform="translate(-248.658 -83.923)"/><path class="g" d="M656.127,344.373h0a13.747,13.747,0,0,1,13.747,13.747v18.571H642.38V358.121A13.747,13.747,0,0,1,656.127,344.373Z" transform="translate(-262.673 -140.817)"/><path class="g" d="M426,344.373h0a13.747,13.747,0,0,1,13.747,13.747v18.571H412.254V358.121A13.747,13.747,0,0,1,426,344.373Z" transform="translate(-168.573 -140.817)"/><path class="f" d="M738.58,531.582l-45.786-20.259a1.927,1.927,0,0,0-.781-.165H473.806a1.929,1.929,0,0,0-.727.142l-49.838,20.259a1.929,1.929,0,0,0,.727,3.717H436.9v66.566h-1.447v6.753H726.316v-6.753H723.9V535.276h13.9a1.929,1.929,0,0,0,.781-3.694Zm-18.534,70.26H440.758V535.276H720.045Z" transform="translate(-258.578 -341.125)"/><rect class="e" width="35.212" height="5.788" transform="translate(253.328 150.497)"/><rect class="e" width="35.212" height="5.788" transform="translate(304.94 150.497)"/><rect class="e" width="35.212" height="5.788" transform="translate(356.553 150.497)"/><rect class="e" width="35.212" height="5.788" transform="translate(375.848 233.946)"/><rect class="e" width="35.212" height="5.788" transform="translate(239.339 233.946)"/><path class="i" d="M737,391.542c0,.378-.006.762-.012,1.141-.006.455-.018.9-.036,1.359-.018.4-.036.786-.059,1.176-.071,1.306-.183,2.607-.337,3.913-.036.331-.077.656-.124.987-.035.254-.071.514-.112.774-.041.29-.083.579-.13.869q-.142.922-.319,1.844c-.059.307-.118.615-.183.922-.124.609-.26,1.224-.4,1.832-.012.047-.024.1-.035.148-.071.3-.142.6-.219.9-.024.089-.041.171-.071.26-.053.225-.112.449-.171.674-.083.313-.166.621-.254.934-.142.485-.284.964-.432,1.448a1.514,1.514,0,0,0-.047.154c-.284.916-.585,1.821-.916,2.719-.171.473-.355.952-.538,1.424s-.372.946-.568,1.413-.384.91-.579,1.36c-.047.106-.095.213-.148.319-.207.467-.42.922-.638,1.377-.006.006-.006.018-.012.024-.171.366-.355.733-.538,1.094a.045.045,0,0,1-.012.03c-.177.355-.36.709-.55,1.058l-.3.573-.036.065c-.378.7-.768,1.4-1.182,2.092-.089.154-.177.307-.266.455s-.183.307-.278.455q-.089.16-.2.319c-.124.2-.248.408-.378.609-.024.041-.053.083-.077.124-.225.349-.449.692-.674,1.04-.278.42-.562.833-.851,1.247L718.9,438.948l-.278-.231-.077-.071h-.006l-.254-.213-.7-.591c-.213.207-.42.414-.633.615-.083.083-.171.16-.254.242-.065.059-.124.118-.189.177a61.9,61.9,0,0,1-41.365,17.585h-.018a67.56,67.56,0,0,1-33.71-7.956c-.231-.118-.455-.237-.68-.372-1.348-.733-2.666-1.507-3.96-2.335-.006-.006-.012-.006-.018-.012q-2.252-1.6-4.4-3.4a64.977,64.977,0,0,1-23.011-53.074c.018-.4.041-.786.071-1.182q.142-2.146.437-4.274c.053-.4.112-.792.171-1.182H736.4q.372,2.713.514,5.456C736.972,389.266,737,390.4,737,391.542Z" transform="translate(-335.137 -288.586)"/><path class="j" d="M736.509,345.043a63.892,63.892,0,0,0-126.364,0c-.059.39-.118.786-.171,1.182q-.292,2.128-.437,4.274H737.023Q736.882,347.759,736.509,345.043Z" transform="translate(-335.248 -250.959)"/><path class="j" d="M699.132,464.162H662.521V434.875c.676-13.384,12.115-14.465,22.864-13.747a13.746,13.746,0,0,1,13.747,13.748Z" transform="translate(-356.913 -304.243)"/><path class="c" d="M640.742,389.6v.006c0,.006.006.006.012.006Zm-14.724-45.012c-.024.148-.053.3-.077.443.024-.148.053-.3.083-.443Zm-.733,5.456c-.018.225-.035.449-.047.674q.018-.337.053-.674a.87.87,0,0,1,.006-.124C625.291,349.96,625.291,350,625.285,350.043ZM640.742,389.6c0,.006.006.006.012.006l-.012-.012Zm-14.724-45.018c-.024.148-.053.3-.077.443.024-.148.053-.3.083-.443Zm-.78,6.13q.018-.337.053-.674a.87.87,0,0,1,.006-.124c-.006.041-.006.083-.012.124C625.267,350.268,625.25,350.492,625.238,350.717ZM807.85,459.454a4,4,0,0,0-.367-.343l-.006-.006-29.271-24.7-.757-.638-2.879-2.429-.721-.609-4.1-3.464-1.123-.946-2.323-1.962-1.188-1L753.907,413.9l-6.425-5.42-.863-.727-18.933-15.977c.29-.414.573-.828.851-1.247.225-.349.449-.692.674-1.04.023-.041.053-.083.077-.124.13-.2.254-.408.378-.609q.106-.16.2-.319c.095-.148.189-.3.278-.455s.177-.3.266-.455c.414-.692.8-1.389,1.182-2.092l.035-.065.3-.573c.189-.349.372-.7.55-1.058a.044.044,0,0,0,.012-.03c.183-.361.367-.727.538-1.094.006-.006.006-.018.012-.024.219-.455.432-.91.638-1.377.053-.106.1-.213.148-.319.2-.449.39-.9.579-1.359s.384-.94.567-1.413.366-.952.538-1.424q.488-1.357.916-2.719a1.551,1.551,0,0,1,.047-.154c.148-.485.29-.964.432-1.448.089-.313.171-.621.254-.934.059-.225.118-.449.171-.674.03-.089.047-.171.071-.26.077-.3.148-.6.219-.9.012-.047.024-.1.035-.148.142-.609.278-1.224.4-1.832.065-.307.124-.615.183-.922.112-.615.225-1.229.319-1.844.047-.29.089-.579.13-.869.041-.26.077-.52.112-.774.047-.331.089-.656.124-.987.154-1.306.266-2.607.337-3.913.024-.39.041-.78.059-1.176.018-.455.03-.9.036-1.359.006-.378.012-.762.012-1.141,0-1.141-.03-2.276-.089-3.417q-.142-2.74-.514-5.456a65.051,65.051,0,0,0-128.728-1.182c-.059.39-.118.786-.171,1.182q-.292,2.128-.437,4.274c-.029.4-.053.786-.071,1.182A64.977,64.977,0,0,0,632.366,404.3q2.146,1.809,4.4,3.4c.006.006.012.006.018.012.5.355,1,.7,1.513,1.046.81.532,1.625,1.052,2.447,1.549.065.035.13.077.2.112.709.426,1.425.833,2.14,1.229h.006a63.926,63.926,0,0,0,8.27,3.807,65.246,65.246,0,0,0,26.144,4.1h.018a64.88,64.88,0,0,0,29.5-8.73c1.306-.757,2.595-1.566,3.854-2.429.313-.213.632-.432.94-.65.378-.266.757-.544,1.135-.822.006,0,.006-.006.012-.006a.836.836,0,0,1,.089-.065c.254-.2.514-.39.762-.579.065-.047.13-.095.2-.148a.291.291,0,0,0,.047-.041c.148-.106.29-.225.437-.337s.29-.23.437-.349a.555.555,0,0,0,.071-.053c.166-.136.331-.266.5-.4s.337-.278.5-.414.325-.272.491-.414c.142-.118.29-.242.432-.372.047-.035.089-.077.136-.118a.412.412,0,0,1,.059-.047c.2-.165.384-.337.573-.508.047-.041.089-.083.136-.124.29-.26.579-.52.863-.792l.2-.183c.065-.059.124-.118.189-.177.083-.083.171-.16.254-.242.213-.2.42-.408.633-.615l.7.591.254.213h.006l.077.071.278.231,4.126,3.487.089.077.071.053.467.4.934.792.934.786.136.112,4.344,3.665.6.508,4.191,3.535,21.693,18.306.757.638L789.3,459.454l7.613,6.425,2.831,2.388a5.99,5.99,0,0,0,8.447-.709,5.818,5.818,0,0,0,1-1.679A5.965,5.965,0,0,0,807.85,459.454ZM636.628,322.433a48.734,48.734,0,0,1,85.088,22.154c.077.4.148.786.213,1.182.242,1.413.42,2.843.526,4.274.029.4.059.786.077,1.182.053.887.077,1.779.077,2.666a48.519,48.519,0,0,1-2.636,15.806v.006a48.473,48.473,0,0,1-8.849,15.593c-.083.095-.165.2-.254.29-.78.922-1.6,1.809-2.447,2.654-.006.006-.012.018-.018.024-.29.29-.585.585-.881.857-.6.585-1.218,1.141-1.844,1.673q-1.41,1.232-2.89,2.311c-.331.242-.662.479-1,.715s-.668.461-1,.686c-.674.449-1.359.881-2.051,1.289-.343.207-.7.408-1.046.6s-.7.39-1.058.573-.709.372-1.07.55c-.715.361-1.437.7-2.169,1.011q-.55.248-1.1.461c-.23.095-.455.189-.686.272a2.224,2.224,0,0,1-.278.106q-.186.08-.372.142a1.076,1.076,0,0,1-.124.047c-.254.1-.5.189-.763.278-.372.136-.745.26-1.123.378s-.751.242-1.129.349-.763.225-1.141.325-.762.207-1.147.3c-.408.106-.816.2-1.229.29-.361.083-.715.154-1.076.219-.337.071-.68.13-1.017.189-.473.083-.946.16-1.424.225-.26.041-.514.077-.774.1-.112.018-.219.03-.325.041-.331.047-.662.083-.987.112-.089.006-.171.018-.254.024-.36.035-.727.065-1.088.095-.774.053-1.543.089-2.317.106-.39.006-.786.012-1.176.012s-.78-.006-1.17-.018c0,0,0,.006-.006,0s-.006.006-.012,0l-.006,0-.006,0a.1.1,0,0,1-.059,0c-.278,0-.556-.012-.828-.03-.2-.006-.408-.012-.615-.03q-.416-.018-.833-.053c-.089,0-.177-.012-.266-.018a.869.869,0,0,1-.124-.012c-.284-.024-.573-.047-.857-.077-.142-.012-.289-.024-.431-.041-.432-.047-.863-.1-1.289-.16-.485-.059-.969-.13-1.448-.219-.225-.03-.443-.071-.662-.112q-.434-.071-.869-.16c-.3-.059-.6-.118-.9-.189-.242-.053-.49-.106-.733-.165-.118-.024-.236-.053-.349-.083-.621-.148-1.235-.307-1.844-.485-.384-.106-.768-.219-1.147-.337-.52-.16-1.034-.331-1.549-.514-.2-.065-.4-.136-.6-.213s-.4-.142-.6-.219c-.183-.065-.367-.136-.544-.207-.3-.112-.585-.23-.875-.349-.6-.242-1.182-.5-1.767-.768-.331-.16-.662-.313-.987-.473q-1.924-.931-3.789-2.069c-.307-.183-.615-.378-.922-.573-.384-.236-.757-.485-1.129-.733-.207-.142-.408-.278-.609-.42-.372-.26-.739-.526-1.1-.792-.189-.136-.378-.278-.562-.42-.656-.5-1.3-1.017-1.933-1.549-.3-.254-.6-.514-.9-.78-.124-.106-.248-.219-.372-.331-.142-.13-.284-.254-.42-.39l-.012-.012c-.207-.183-.414-.378-.615-.573-.313-.3-.621-.6-.916-.9s-.6-.615-.893-.922-.579-.621-.857-.94-.562-.632-.834-.958c-.266-.307-.526-.627-.774-.94q-.9-1.117-1.726-2.276c-.254-.355-.5-.709-.733-1.07-.254-.367-.5-.739-.727-1.111s-.473-.751-.7-1.135a.121.121,0,0,0-.024-.035c-.443-.751-.869-1.507-1.265-2.276s-.792-1.568-1.153-2.364c-.183-.4-.36-.8-.526-1.2-.343-.81-.662-1.62-.958-2.441-.148-.4-.284-.792-.42-1.194a.292.292,0,0,0-.024-.077c-.272-.816-.52-1.637-.739-2.465-.006-.012-.006-.024-.012-.035-.112-.408-.219-.816-.313-1.23-.095-.361-.177-.721-.254-1.088-.089-.408-.177-.816-.254-1.229-.041-.213-.083-.426-.118-.638-.035-.177-.065-.361-.095-.538s-.059-.361-.089-.544q-.089-.541-.16-1.082c-.059-.426-.106-.851-.154-1.283-.053-.514-.1-1.029-.142-1.549-.029-.349-.047-.7-.065-1.058-.018-.325-.035-.65-.041-.975a.082.082,0,0,1,0-.053.009.009,0,0,1,0-.006.008.008,0,0,1,0-.006c-.006-.006-.006-.006,0-.012a.008.008,0,0,1,0-.012c-.006-.13-.012-.26-.012-.39q-.018-.576-.018-1.153c0-.349.006-.692.012-1.04q.018-.727.053-1.454c0-.106.012-.207.018-.313s.012-.207.018-.313q.018-.337.053-.674a.869.869,0,0,1,.006-.124c.018-.254.041-.508.065-.763.047-.508.107-1.023.172-1.531.035-.254.065-.508.106-.763.024-.177.053-.361.083-.544s.053-.366.089-.55c.041-.242.083-.491.13-.739.024-.148.053-.3.083-.443q.168-.887.372-1.773c.136-.6.29-1.188.455-1.779s.337-1.194.526-1.791c.089-.3.183-.6.29-.893.195-.6.4-1.188.633-1.773.106-.29.219-.585.343-.875.236-.585.485-1.17.739-1.744.13-.29.26-.579.4-.869.266-.573.544-1.147.845-1.708s.6-1.135.922-1.691.65-1.111,1-1.661c.16-.272.337-.55.52-.816.355-.544.727-1.088,1.105-1.62C634.938,324.52,635.759,323.462,636.628,322.433Zm-11.343,27.61c-.018.225-.035.449-.047.674q.018-.337.053-.674a.87.87,0,0,1,.006-.124C625.291,349.96,625.291,350,625.285,350.043Zm.733-5.456c-.024.148-.053.3-.077.443.024-.148.053-.3.083-.443ZM640.742,389.6v.006c0,.006.006.006.012.006Z" transform="translate(-335.137 -250.503)"/><path class="k" d="M649.859,416.056a48.738,48.738,0,0,1-8.27-65.517q-1.4,1.408-2.7,2.948a48.736,48.736,0,1,0,74.5,62.859q1.3-1.543,2.452-3.16A48.738,48.738,0,0,1,649.859,416.056Z" transform="translate(-342.551 -275.447)"/></g></svg>