<svg xmlns="http://www.w3.org/2000/svg" width="60" height="60" viewBox="0 0 60 60"><defs><style>.a{fill:#fff;}</style></defs><g transform="translate(-1672.115 -2707.421)"><path class="a" d="M1719.742,2752.773h-7.3v-11.76c0-2.955-1.058-4.97-3.7-4.97a4,4,0,0,0-3.748,2.672,4.979,4.979,0,0,0-.241,1.783v12.275h-7.306s.1-19.919,0-21.981h7.306v3.112a7.253,7.253,0,0,1,6.585-3.628c4.807,0,8.411,3.141,8.411,9.893v12.6Zm-30-24.983h-.048a4.175,4.175,0,1,1,.048,0Zm3.653,24.983h-7.306v-21.981h7.306v21.981Zm8.718-45.352a30,30,0,1,0,30,30,30,30,0,0,0-30-30Z"/></g></svg>