<svg xmlns="http://www.w3.org/2000/svg" width="496.088" height="260.782" viewBox="0 0 496.088 260.782"><defs><style>.a{fill:#e2e2e2;}.b{fill:#f0a12a;}.c{fill:#3f3d56;}.d{fill:#fff;}.e{fill:#d1dee7;}.f{fill:#759ec8;}</style></defs><g transform="translate(-4.36 0.002)"><path class="a" d="M358.664,596.073l-12.387-19.657,12.393,21.8.007,2.24q1.326-.015,2.624-.1l-1.01-28.773.013-.222-.023-.043-.1-2.719,12.952-21.544L360.171,566.56l-.039.576-.763-21.739,11.134-22.29-11.221,18.471-.522-45.06,0-.15,0,.148-.254,35.526-10.639-14.215L358.511,535.1l.049,19.458-9.872-18.793,9.877,21.653.027,10.82-14.34-26.166L358.6,572.014Z" transform="translate(-237.502 -339.721)"/><path class="a" d="M546.376,596.073l-12.387-19.657,12.393,21.8.007,2.24q1.326-.016,2.624-.1L548,571.58l.013-.222-.023-.043-.1-2.719,12.952-21.544L547.883,566.56l-.039.576-.763-21.739,11.134-22.29-11.221,18.471-.522-45.06,0-.15,0,.148-.254,35.526-10.639-14.215L546.223,535.1l.049,19.458L536.4,535.766l9.877,21.653.027,10.82-14.339-26.166,14.351,29.941Z" transform="translate(-318.919 -339.721)"/><path class="a" d="M173.841,619.529,164.9,605.335l8.949,15.741,0,1.617q.957-.011,1.9-.073l-.73-20.777.01-.161-.016-.031-.069-1.963,9.352-15.557-9.362,14.087-.028.416-.551-15.7,8.04-16.1-8.1,13.337-.377-32.537,0-.108v.107l-.184,25.653-7.683-10.264,7.689,12.474.036,14.05-7.128-13.57,7.132,15.636.02,7.813-10.355-18.894,10.363,21.62Z" transform="translate(-159.076 -361.913)"/><path class="a" d="M1002.908,596.073l-12.387-19.657,12.392,21.8.007,2.24q1.326-.015,2.624-.1l-1.01-28.773.013-.222-.023-.043-.1-2.719,12.952-21.544-12.965,19.508-.039.576-.763-21.739,11.134-22.29-11.221,18.471-.522-45.06,0-.15,0,.148-.254,35.526-10.639-14.215,10.649,17.275.049,19.458-9.872-18.793,9.877,21.653.027,10.82L988.5,542.073l14.351,29.941Z" transform="translate(-516.931 -339.721)"/><rect class="b" width="66.82" height="2.831" transform="translate(216.868 226.674) rotate(180)"/><rect class="b" width="66.82" height="2.831" transform="translate(213.471 223.842) rotate(180)"/><rect class="b" width="66.82" height="2.831" transform="translate(217.435 221.011) rotate(180)"/><rect class="b" width="66.82" height="2.831" transform="translate(224.23 218.18) rotate(180)"/><rect class="c" width="2.32" height="16.472" transform="translate(102.876 219.308) rotate(180)"/><rect class="c" width="2.32" height="92.653" transform="translate(101.422 204.777) rotate(-112.092)"/><rect class="c" width="20.184" height="7.888" transform="translate(77.821 243.9) rotate(180)"/><rect class="c" width="99.527" height="8.816" transform="translate(159.02 251.788) rotate(180)"/><path class="a" d="M133.68,413.85h23.9V383.806H139.712l-6.032,15.153Z" transform="translate(-57.832 -166.47)"/><rect class="d" width="10.208" height="10.208" transform="translate(96.032 229.4) rotate(180)"/><path class="d" d="M137.777,397.5h6.5V387.289h-2.784Z" transform="translate(-59.609 -167.98)"/><rect class="c" width="2.32" height="4.408" transform="translate(95.568 239.608) rotate(180)"/><path class="c" d="M0,0H.116a2.2,2.2,0,0,1,2.2,2.2h0a2.2,2.2,0,0,1-2.2,2.2H0V0Z" transform="translate(82.693 230.212) rotate(180)"/><path class="c" d="M0,0H.116a2.2,2.2,0,0,1,2.2,2.2h0a2.2,2.2,0,0,1-2.2,2.2H0V0Z" transform="translate(168.996 247.38) rotate(180)"/><path class="a" d="M262.986,639.651a11.479,11.479,0,0,0-8.922,4.441H249.53l4.408-12.279,20.532-4.049-.58,16.328h-1.982a11.479,11.479,0,0,0-8.922-4.441Z" transform="translate(-196.417 -396.713)"/><circle class="c" cx="10.092" cy="10.092" r="10.092" transform="translate(56.245 240.188)"/><circle class="a" cx="5.312" cy="5.312" r="5.312" transform="translate(61.025 244.969)"/><circle class="c" cx="8.816" cy="8.816" r="8.816" transform="translate(148.696 242.624)"/><circle class="a" cx="4.64" cy="4.64" r="4.64" transform="translate(152.872 246.8)"/><rect class="c" width="4.872" height="35.148" transform="translate(103.92 248.308) rotate(180)"/><rect class="c" width="70.063" height="2.088" transform="translate(169.112 244.016) rotate(180)"/><rect class="c" width="2.32" height="0.928" transform="translate(83.62 230.908) rotate(180)"/><path class="c" d="M480.348,596.529a.232.232,0,0,1-.059-.18l3.2-30.257a.232.232,0,0,1,.23-.208h0a.232.232,0,0,1,.231.206l3.461,30.194a.232.232,0,0,1-.228.259l-6.66.063h0A.231.231,0,0,1,480.348,596.529Zm3.381-28.294-2.951,27.9,6.142-.058Z" transform="translate(-296.504 -369.873)"/><path class="c" d="M0,0H.116a2.2,2.2,0,0,1,2.2,2.2h0a2.2,2.2,0,0,1-2.2,2.2H0V0Z" transform="matrix(0.935, 0.354, -0.354, 0.935, 57.563, 235.282)"/><rect class="c" width="2.32" height="33.872" transform="translate(188.484 201.676) rotate(180)"/><circle class="c" cx="3.248" cy="3.248" r="3.248" transform="translate(98.468 200.052)"/><rect class="b" width="66.82" height="2.831" transform="translate(173.266 241.963) rotate(180)"/><rect class="b" width="66.82" height="2.831" transform="translate(177.23 239.131) rotate(180)"/><rect class="b" width="66.82" height="2.831" transform="translate(174.398 236.866) rotate(180)"/><rect class="b" width="66.82" height="2.831" transform="translate(178.362 234.035) rotate(180)"/><path class="e" d="M531.693,340.564a8.831,8.831,0,0,1,5.8,2.16,8.838,8.838,0,0,1,3.9-.171,8.868,8.868,0,0,1,16.17,5.032H523.019A8.871,8.871,0,0,1,531.693,340.564Z" transform="translate(-315.038 -271.343)"/><path class="e" d="M440.29,389.989a8.349,8.349,0,0,1,5.48,2.042,8.355,8.355,0,0,1,3.687-.162,8.384,8.384,0,0,1,15.287,4.758H432.09A8.386,8.386,0,0,1,440.29,389.989Z" transform="translate(-275.599 -292.824)"/><path class="e" d="M348.289,308.543a8.687,8.687,0,0,1,5.7,2.125,8.693,8.693,0,0,1,3.836-.169,8.723,8.723,0,0,1,15.905,4.95H339.756A8.725,8.725,0,0,1,348.289,308.543Z" transform="translate(-235.551 -257.467)"/><path class="f" d="M751,399.648v70.73H778.5V398.666l-6.385.228V384.422h-4.631l-.763-32.053c1.869-1.218,3.184-4.11,3.184-7.487a12.274,12.274,0,0,0-.336-2.879,5.889,5.889,0,0,0,.634-7.173,5.893,5.893,0,1,0,7.638-8.977,5.895,5.895,0,1,0-7.936-5.53c0,.086,0,.172.006.257a5.9,5.9,0,0,0-7.553,4.747,5.894,5.894,0,1,0-4.239,10.831c0,.043,0,.085,0,.128a28.653,28.653,0,0,0,2.082,4.776,11.908,11.908,0,0,0-.608,3.819c0,3.377,1.315,6.269,3.184,7.487l-.763,32.053h-4.631v15Zm17.176-67.538h.015c.085,0,.17,0,.254-.006q.08.261.182.512a5.9,5.9,0,0,0-.451-.506Z" transform="translate(-413.92 -260.808)"/><rect class="f" width="83.501" height="96.599" transform="translate(405.435 259.916) rotate(180)"/><rect class="a" width="22.512" height="19.647" transform="translate(374.94 259.916) rotate(180)"/><path class="a" d="M669.149,255.952c0,.071-.005.142-.005.214a9.792,9.792,0,0,0,2.979,7.043,9.806,9.806,0,0,0,.491.917,19.836,19.836,0,0,0-1.014,6.366c0,7.46,3.848,13.508,8.6,13.508s8.6-6.048,8.6-13.508a20.444,20.444,0,0,0-.56-4.8,9.816,9.816,0,0,0,1.057-11.955,9.822,9.822,0,1,0,12.73-14.961,9.825,9.825,0,1,0-13.226-9.217c0,.144,0,.287.011.429a9.83,9.83,0,0,0-12.588,7.911,9.824,9.824,0,1,0-7.065,18.052Zm16.777-6.745c.142,0,.282,0,.423-.011q.132.436.3.853a9.868,9.868,0,0,0-.752-.843Z" transform="translate(-375.044 -219.737)"/><path class="b" d="M685.941,399.095h9.825l-.351-14.734v-.006l-1.286-54.028a6.283,6.283,0,0,1-6.552,0l-1.285,54.028v.006Z" transform="translate(-385.703 -267.704)"/><path class="b" d="M498.141,231.384V349.27h45.84V229.748l-10.641.379V206.01H508.781v25Z" transform="translate(-215.91 -89.354)"/><path class="a" d="M875.88,255.952c0,.071-.005.142-.005.214a9.792,9.792,0,0,0,2.979,7.043,9.843,9.843,0,0,0,.491.917,19.842,19.842,0,0,0-1.014,6.366c0,7.46,3.848,13.507,8.6,13.507s8.6-6.047,8.6-13.507a20.453,20.453,0,0,0-.56-4.8,9.816,9.816,0,0,0,1.057-11.955,9.822,9.822,0,1,0,12.73-14.961,9.825,9.825,0,1,0-13.226-9.217c0,.144,0,.287.011.429a9.83,9.83,0,0,0-12.588,7.911,9.824,9.824,0,1,0-7.064,18.052Zm16.777-6.745c.142,0,.282,0,.423-.011q.132.436.3.853a9.853,9.853,0,0,0-.751-.843Z" transform="translate(-464.71 -219.737)"/><path class="b" d="M892.674,399.1H902.5l-1.637-68.765a9.683,9.683,0,0,1-6.549,0Z" transform="translate(-475.369 -267.706)"/><path class="b" d="M704.871,231.384V349.27h45.845V229.748l-3.766.136-6.88.244V206.01H715.511v25Z" transform="translate(-305.575 -89.354)"/><rect class="d" width="11.325" height="11.325" transform="translate(387.467 186.301) rotate(180)"/><rect class="d" width="11.325" height="11.325" transform="translate(369.347 186.301) rotate(180)"/><rect class="d" width="11.325" height="11.325" transform="translate(351.226 186.301) rotate(180)"/><rect class="d" width="11.325" height="11.325" transform="translate(387.467 204.422) rotate(180)"/><rect class="d" width="11.325" height="11.325" transform="translate(369.347 204.422) rotate(180)"/><rect class="d" width="11.325" height="11.325" transform="translate(351.226 204.422) rotate(180)"/><rect class="d" width="11.325" height="11.325" transform="translate(387.467 222.542) rotate(180)"/><rect class="d" width="11.325" height="11.325" transform="translate(369.347 222.542) rotate(180)"/><rect class="d" width="11.325" height="11.325" transform="translate(351.226 222.542) rotate(180)"/><rect class="d" width="11.325" height="11.325" transform="translate(310.814 181.771) rotate(180)"/><rect class="d" width="11.325" height="11.325" transform="translate(310.814 199.892) rotate(180)"/><rect class="d" width="11.325" height="11.325" transform="translate(310.814 218.012) rotate(180)"/><rect class="d" width="11.325" height="11.325" transform="translate(310.814 236.133) rotate(180)"/><rect class="d" width="11.325" height="11.325" transform="translate(427.785 181.771) rotate(180)"/><rect class="d" width="11.325" height="11.325" transform="translate(427.785 199.892) rotate(180)"/><rect class="d" width="11.325" height="11.325" transform="translate(427.785 218.012) rotate(180)"/><rect class="d" width="11.325" height="11.325" transform="translate(427.785 236.133) rotate(180)"/></g></svg>